<?xml version="1.0" encoding="UTF-8"?>
<svg width="178px" height="31px" viewBox="0 0 178 31" version="1.1" xmlns="http://www.w3.org/2000/svg" xmlns:xlink="http://www.w3.org/1999/xlink">
    <!-- Generator: Sketch 52.2 (67145) - http://www.bohemiancoding.com/sketch -->
    <title>Artboard</title>
    <desc>Created with Sketch.</desc>
    <g id="Artboard" stroke="none" stroke-width="1" fill="none" fill-rule="evenodd">
        <g id="Group" transform="translate(0.000000, 1.000000)">
            <rect id="Rectangle" fill="#FFC43A" x="0" y="0" width="178" height="29" rx="14.5"></rect>
            <path d="M15.924,19 L15.924,10.42 L19.296,10.42 C21.168,10.42 22.14,11.188 22.14,12.652 L22.14,12.7 C22.14,13.6 21.708,14.26 20.748,14.536 C21.864,14.764 22.464,15.4 22.464,16.552 L22.464,16.6 C22.464,18.172 21.432,19 19.452,19 L15.924,19 Z M17.82,17.656 L19.152,17.656 C20.112,17.656 20.544,17.224 20.544,16.444 L20.544,16.396 C20.544,15.604 20.112,15.196 19.056,15.196 L17.82,15.196 L17.82,17.656 Z M17.82,13.948 L18.984,13.948 C19.92,13.948 20.292,13.612 20.292,12.844 L20.292,12.796 C20.292,12.076 19.884,11.752 18.972,11.752 L17.82,11.752 L17.82,13.948 Z M25.764,19.132 C24.54,19.132 23.628,18.412 23.628,16.768 L23.628,12.724 L25.356,12.724 L25.356,16.528 C25.356,17.38 25.704,17.788 26.448,17.788 C27.18,17.788 27.756,17.332 27.756,16.408 L27.756,12.724 L29.484,12.724 L29.484,19 L27.756,19 L27.756,18.016 C27.432,18.652 26.796,19.132 25.764,19.132 Z M31.812,21.136 L32.916,18.364 L30.42,12.724 L32.292,12.724 L33.816,16.492 L35.22,12.724 L36.888,12.724 L33.492,21.136 L31.812,21.136 Z M40.488,19 L40.488,12.724 L42.228,12.724 L42.228,13.72 C42.54,13.096 43.224,12.58 44.268,12.58 C45.504,12.58 46.38,13.324 46.38,15.004 L46.38,19 L44.64,19 L44.64,15.256 C44.64,14.404 44.304,13.996 43.536,13.996 C42.792,13.996 42.228,14.452 42.228,15.376 L42.228,19 L40.488,19 Z M50.796,17.812 C51.768,17.812 52.332,17.092 52.332,15.904 L52.332,15.82 C52.332,14.62 51.768,13.9 50.796,13.9 C49.836,13.9 49.26,14.596 49.26,15.796 L49.26,15.892 C49.26,17.092 49.812,17.812 50.796,17.812 Z M50.784,19.132 C48.912,19.132 47.484,17.884 47.484,15.928 L47.484,15.832 C47.484,13.864 48.912,12.58 50.796,12.58 C52.68,12.58 54.096,13.84 54.096,15.796 L54.096,15.892 C54.096,17.872 52.668,19.132 50.784,19.132 Z M56.592,19 L54.684,12.724 L56.508,12.724 L57.624,16.948 L58.836,12.724 L60.264,12.724 L61.368,16.948 L62.556,12.724 L64.224,12.724 L62.244,19 L60.54,19 L59.472,15.064 L58.32,19 L56.592,19 Z M69.168,19 L67.26,12.724 L69.084,12.724 L70.2,16.948 L71.412,12.724 L72.84,12.724 L73.944,16.948 L75.132,12.724 L76.8,12.724 L74.82,19 L73.116,19 L72.048,15.064 L70.896,19 L69.168,19 Z M77.796,19 L77.796,12.724 L79.524,12.724 L79.524,19 L77.796,19 Z M78.648,11.872 C78.096,11.872 77.664,11.464 77.664,10.924 C77.664,10.384 78.096,9.976 78.648,9.976 C79.212,9.976 79.644,10.384 79.644,10.924 C79.644,11.464 79.212,11.872 78.648,11.872 Z M83.412,19.12 C82.092,19.12 81.384,18.448 81.384,17.14 L81.384,13.96 L80.58,13.96 L80.58,12.724 L81.384,12.724 L81.384,11.368 L83.112,11.368 L83.112,12.724 L84.432,12.724 L84.432,13.96 L83.112,13.96 L83.112,16.984 C83.112,17.488 83.364,17.728 83.808,17.728 C84.072,17.728 84.264,17.692 84.468,17.608 L84.468,18.952 C84.228,19.036 83.88,19.12 83.412,19.12 Z M85.644,19 L85.644,9.88 L87.384,9.88 L87.384,13.72 C87.696,13.096 88.38,12.58 89.424,12.58 C90.66,12.58 91.536,13.324 91.536,15.004 L91.536,19 L89.796,19 L89.796,15.256 C89.796,14.404 89.46,13.996 88.692,13.996 C87.948,13.996 87.384,14.452 87.384,15.376 L87.384,19 L85.644,19 Z" id="Buy-now-with" fill="#253B80"></path>
            <g id="Group-2" transform="translate(98.000000, 6.000000)">
                <path d="M23.8508387,3.48335484 L20.3210323,3.48335484 C20.0794839,3.48335484 19.8740645,3.65883871 19.8363871,3.89729032 L18.4087742,12.9486452 C18.3803871,13.1272258 18.5187097,13.2882581 18.699871,13.2882581 L20.3850323,13.2882581 C20.6265806,13.2882581 20.832,13.1127742 20.8696774,12.8738065 L21.2547097,10.4325161 C21.291871,10.1935484 21.4978065,10.0180645 21.7388387,10.0180645 L22.8562581,10.0180645 C25.1814194,10.0180645 26.5233548,8.89290323 26.8738065,6.66322581 C27.0317419,5.68774194 26.8805161,4.92129032 26.4237419,4.38451613 C25.9220645,3.79509677 25.0322581,3.48335484 23.8508387,3.48335484 Z M24.2580645,6.78916129 C24.0650323,8.05574194 23.0972903,8.05574194 22.1615484,8.05574194 L21.6289032,8.05574194 L22.0025806,5.69032258 C22.0247742,5.54735484 22.1486452,5.44206452 22.2931613,5.44206452 L22.5372903,5.44206452 C23.1747097,5.44206452 23.776,5.44206452 24.0867097,5.80541935 C24.272,6.02219355 24.3287742,6.34425806 24.2580645,6.78916129 Z" id="Shape" fill="#253B80" fill-rule="nonzero"></path>
                <path d="M34.4020645,6.7483871 L32.7117419,6.7483871 C32.5677419,6.7483871 32.4433548,6.85367742 32.4211613,6.99664516 L32.3463226,7.46941935 L32.228129,7.29806452 C31.8621935,6.76696774 31.0461935,6.58941935 30.2317419,6.58941935 C28.363871,6.58941935 26.7685161,8.00412903 26.4578065,9.98864516 C26.2962581,10.9785806 26.5259355,11.9251613 27.0874839,12.5852903 C27.6025806,13.1922581 28.3396129,13.4451613 29.2165161,13.4451613 C30.7215484,13.4451613 31.556129,12.4774194 31.556129,12.4774194 L31.4807742,12.9470968 C31.4523871,13.1267097 31.5907097,13.2877419 31.7708387,13.2877419 L33.2934194,13.2877419 C33.5354839,13.2877419 33.739871,13.1122581 33.7780645,12.8732903 L34.6916129,7.088 C34.7205161,6.90993548 34.5827097,6.7483871 34.4020645,6.7483871 Z M32.0459355,10.0381935 C31.8828387,11.003871 31.1163871,11.652129 30.1388387,11.652129 C29.648,11.652129 29.2557419,11.4947097 29.003871,11.1963871 C28.7540645,10.900129 28.6590968,10.4784516 28.7385806,10.0087742 C28.8908387,9.05135484 29.6701935,8.38193548 30.6327742,8.38193548 C31.1127742,8.38193548 31.5029677,8.54141935 31.76,8.84232258 C32.0175484,9.14632258 32.1197419,9.57058065 32.0459355,10.0381935 Z" id="Shape" fill="#253B80" fill-rule="nonzero"></path>
                <path d="M43.4043871,6.7483871 L41.7058065,6.7483871 C41.5437419,6.7483871 41.3914839,6.82890323 41.2996129,6.9636129 L38.9569032,10.4144516 L37.963871,7.09832258 C37.9014194,6.89083871 37.7099355,6.7483871 37.4931613,6.7483871 L35.824,6.7483871 C35.6211613,6.7483871 35.4802581,6.94658065 35.5447742,7.13754839 L37.4157419,12.628129 L35.6567742,15.1112258 C35.5184516,15.3068387 35.6578065,15.5757419 35.8967742,15.5757419 L37.5932903,15.5757419 C37.7543226,15.5757419 37.9050323,15.4972903 37.9963871,15.3651613 L43.6459355,7.21032258 C43.7811613,7.01522581 43.6423226,6.7483871 43.4043871,6.7483871 Z" id="Path" fill="#253B80"></path>
                <path d="M49.028129,3.48335484 L45.4978065,3.48335484 C45.2567742,3.48335484 45.0513548,3.65883871 45.0136774,3.89729032 L43.5860645,12.9486452 C43.5576774,13.1272258 43.696,13.2882581 43.876129,13.2882581 L45.6877419,13.2882581 C45.856,13.2882581 46,13.1654194 46.0263226,12.9981935 L46.4314839,10.4325161 C46.4686452,10.1935484 46.6745806,10.0180645 46.9156129,10.0180645 L48.0325161,10.0180645 C50.3581935,10.0180645 51.6996129,8.89290323 52.0505806,6.66322581 C52.2090323,5.68774194 52.0567742,4.92129032 51.6,4.38451613 C51.0988387,3.79509677 50.2095484,3.48335484 49.028129,3.48335484 Z M49.4353548,6.78916129 C49.2428387,8.05574194 48.2750968,8.05574194 47.3388387,8.05574194 L46.8067097,8.05574194 L47.1809032,5.69032258 C47.2030968,5.54735484 47.3259355,5.44206452 47.4709677,5.44206452 L47.7150968,5.44206452 C48.352,5.44206452 48.9538065,5.44206452 49.2645161,5.80541935 C49.4498065,6.02219355 49.5060645,6.34425806 49.4353548,6.78916129 Z" id="Shape" fill="#179BD7" fill-rule="nonzero"></path>
                <path d="M59.5788387,6.7483871 L57.8895484,6.7483871 C57.7445161,6.7483871 57.6211613,6.85367742 57.5994839,6.99664516 L57.5246452,7.46941935 L57.4059355,7.29806452 C57.04,6.76696774 56.2245161,6.58941935 55.4100645,6.58941935 C53.5421935,6.58941935 51.9473548,8.00412903 51.6366452,9.98864516 C51.4756129,10.9785806 51.7042581,11.9251613 52.2658065,12.5852903 C52.7819355,13.1922581 53.5179355,13.4451613 54.3948387,13.4451613 C55.899871,13.4451613 56.7344516,12.4774194 56.7344516,12.4774194 L56.6590968,12.9470968 C56.6307097,13.1267097 56.7690323,13.2877419 56.9501935,13.2877419 L58.4722581,13.2877419 C58.7132903,13.2877419 58.9187097,13.1122581 58.9563871,12.8732903 L59.8704516,7.088 C59.8983226,6.90993548 59.76,6.7483871 59.5788387,6.7483871 Z M57.2227097,10.0381935 C57.0606452,11.003871 56.2931613,11.652129 55.3156129,11.652129 C54.8258065,11.652129 54.4325161,11.4947097 54.1806452,11.1963871 C53.9308387,10.900129 53.8369032,10.4784516 53.9153548,10.0087742 C54.0686452,9.05135484 54.8469677,8.38193548 55.8095484,8.38193548 C56.2895484,8.38193548 56.6797419,8.54141935 56.9367742,8.84232258 C57.1953548,9.14632258 57.2975484,9.57058065 57.2227097,10.0381935 Z" id="Shape" fill="#179BD7" fill-rule="nonzero"></path>
                <path d="M61.5716129,3.7316129 L60.1228387,12.9486452 C60.0944516,13.1272258 60.2327742,13.2882581 60.4129032,13.2882581 L61.8694194,13.2882581 C62.1114839,13.2882581 62.3169032,13.1127742 62.3540645,12.8738065 L63.7827097,3.82296774 C63.8110968,3.6443871 63.6727742,3.48283871 63.4926452,3.48283871 L61.8616774,3.48283871 C61.7176774,3.48335484 61.5938065,3.58864516 61.5716129,3.7316129 Z" id="Path" fill="#179BD7"></path>
                <path d="M3.75019355,15.0472258 L4.02012903,13.3326452 L3.41883871,13.3187097 L0.547612903,13.3187097 L2.54296774,0.66683871 C2.54916129,0.628645161 2.56929032,0.593032258 2.59870968,0.567741935 C2.62812903,0.542451613 2.66580645,0.528516129 2.70503226,0.528516129 L7.54632258,0.528516129 C9.15354839,0.528516129 10.2627097,0.862967742 10.8418065,1.52309677 C11.1132903,1.83277419 11.2861935,2.1563871 11.3698065,2.51251613 C11.4575484,2.88619355 11.4590968,3.33264516 11.3734194,3.87716129 L11.3672258,3.91690323 L11.3672258,4.26580645 L11.6387097,4.4196129 C11.8673548,4.54090323 12.0490323,4.67974194 12.1883871,4.83870968 C12.4206452,5.10348387 12.5708387,5.44 12.6343226,5.83896774 C12.699871,6.24929032 12.6781935,6.73754839 12.5708387,7.29032258 C12.4469677,7.92619355 12.2467097,8.48 11.9762581,8.93316129 C11.7274839,9.35070968 11.4105806,9.69703226 11.0343226,9.96541935 C10.6750968,10.2203871 10.2482581,10.4139355 9.76567742,10.5378065 C9.29806452,10.6596129 8.76490323,10.7210323 8.18012903,10.7210323 L7.80335484,10.7210323 C7.53393548,10.7210323 7.27225806,10.8180645 7.06683871,10.992 C6.86090323,11.1695484 6.72464516,11.412129 6.68283871,11.6774194 L6.65445161,11.8317419 L6.17754839,14.8536774 L6.15587097,14.9646452 C6.15019355,14.9997419 6.1403871,15.0172903 6.12593548,15.0291613 C6.11303226,15.04 6.09445161,15.0472258 6.0763871,15.0472258 L3.75019355,15.0472258 Z" id="Path" fill="#253B80"></path>
                <path d="M11.8957419,3.95716129 C11.8812903,4.04954839 11.8647742,4.144 11.8461935,4.24103226 C11.2077419,7.51896774 9.02348387,8.65135484 6.23380645,8.65135484 L4.81341935,8.65135484 C4.47225806,8.65135484 4.18477419,8.89909677 4.1316129,9.2356129 L3.4043871,13.8477419 L3.19845161,15.1550968 C3.16387097,15.376 3.33419355,15.5752258 3.55716129,15.5752258 L6.0763871,15.5752258 C6.37470968,15.5752258 6.62812903,15.3584516 6.67509677,15.0642581 L6.69987097,14.9362581 L7.17419355,11.9261935 L7.20464516,11.7610323 C7.25109677,11.4658065 7.50503226,11.2490323 7.80335484,11.2490323 L8.18012903,11.2490323 C10.6209032,11.2490323 12.5316129,10.2580645 13.0900645,7.39045161 C13.3233548,6.19251613 13.2025806,5.19225806 12.5852903,4.48877419 C12.3984516,4.27664516 12.1667097,4.10064516 11.8957419,3.95716129 Z" id="Path" fill="#179BD7"></path>
                <path d="M11.227871,3.69083871 C11.1303226,3.66245161 11.0296774,3.63664516 10.9264516,3.61341935 C10.8227097,3.59070968 10.7163871,3.57058065 10.6069677,3.55303226 C10.224,3.49109677 9.8043871,3.46167742 9.35483871,3.46167742 L5.56025806,3.46167742 C5.46683871,3.46167742 5.37806452,3.48283871 5.29858065,3.52103226 C5.1236129,3.60516129 4.99354839,3.77083871 4.96206452,3.97367742 L4.15483871,9.08645161 L4.1316129,9.2356129 C4.18477419,8.89909677 4.47225806,8.65135484 4.81341935,8.65135484 L6.23380645,8.65135484 C9.02348387,8.65135484 11.2077419,7.51845161 11.8461935,4.24103226 C11.8652903,4.144 11.8812903,4.04954839 11.8957419,3.95716129 C11.7341935,3.87148387 11.5592258,3.79819355 11.3708387,3.73574194 C11.3243871,3.72025806 11.2763871,3.70529032 11.227871,3.69083871 Z" id="Path" fill="#222D65"></path>
                <path d="M4.96206452,3.97367742 C4.99354839,3.77083871 5.1236129,3.60516129 5.29858065,3.52154839 C5.37858065,3.48335484 5.46683871,3.46219355 5.56025806,3.46219355 L9.35483871,3.46219355 C9.8043871,3.46219355 10.224,3.4916129 10.6069677,3.55354839 C10.7163871,3.57109677 10.8227097,3.59122581 10.9264516,3.61393548 C11.0296774,3.63716129 11.1303226,3.66296774 11.227871,3.69135484 C11.2763871,3.70580645 11.3243871,3.72077419 11.3713548,3.73574194 C11.5597419,3.79819355 11.7347097,3.872 11.8962581,3.95716129 C12.0861935,2.74580645 11.8947097,1.92103226 11.2397419,1.17419355 C10.5176774,0.352 9.21445161,1.24344979e-14 7.54683871,1.24344979e-14 L2.70554839,1.24344979e-14 C2.36490323,1.24344979e-14 2.07432258,0.247741935 2.02167742,0.584774194 L0.00516129032,13.3667097 C-0.0345806452,13.6196129 0.160516129,13.8477419 0.415483871,13.8477419 L3.4043871,13.8477419 L4.15483871,9.08645161 L4.96206452,3.97367742 Z" id="Path" fill="#253B80"></path>
            </g>
        </g>
    </g>
</svg>